<?xml version="1.0" standalone="no"?>
<!DOCTYPE svg PUBLIC "-//W3C//DTD SVG 20010904//EN"
 "http://www.w3.org/TR/2001/REC-SVG-20010904/DTD/svg10.dtd">
<svg version="1.0" xmlns="http://www.w3.org/2000/svg"
 width="512.000000pt" height="512.000000pt" viewBox="0 0 512.000000 512.000000"
 preserveAspectRatio="xMidYMid meet">

<g transform="translate(0.000000,512.000000) scale(0.100000,-0.100000)"
fill="#000000" stroke="none">
<path d="M2361 4745 c-101 -68 -199 -138 -217 -156 -122 -118 -185 -312 -155
-473 6 -33 26 -96 43 -140 30 -76 32 -89 33 -206 0 -141 -16 -201 -79 -295
-18 -27 -189 -239 -380 -470 -367 -444 -421 -516 -491 -660 -96 -196 -134
-357 -142 -590 -4 -144 -2 -189 15 -290 106 -615 576 -1090 1187 -1200 213
-38 561 -29 762 20 327 79 635 283 838 554 248 329 339 768 242 1161 -22 85
-157 443 -176 463 -4 4 -47 -43 -96 -104 -105 -132 -144 -161 -225 -167 -143
-10 -250 99 -238 244 4 42 13 66 44 109 111 157 143 239 152 382 9 163 -31
293 -131 426 -63 83 -68 84 -82 17 -27 -128 -163 -250 -277 -250 l-28 0 0 123
c0 298 -56 499 -197 708 -62 92 -118 202 -150 294 -40 119 -53 221 -53 431 0
107 -3 194 -7 193 -5 0 -91 -56 -192 -124z m587 -2353 c17 -75 15 -226 -3
-297 -22 -82 -58 -159 -106 -223 -54 -71 -69 -110 -69 -179 0 -73 24 -127 78
-175 45 -41 94 -58 162 -58 76 1 125 31 262 167 70 70 130 125 132 122 3 -3
13 -50 22 -104 77 -470 -204 -947 -622 -1055 -115 -30 -403 -39 -533 -16 -292
51 -521 256 -603 541 -19 69 -23 103 -23 240 0 185 17 264 86 396 57 108 126
180 349 359 221 178 254 211 305 295 60 100 72 160 105 523 16 183 30 336 31
340 2 21 417 -831 427 -876z"/>
<path d="M1084 4228 c-34 -16 -44 -51 -44 -148 0 -102 11 -134 51 -151 37 -15
82 2 98 37 14 32 14 196 0 227 -11 24 -48 48 -72 46 -7 0 -22 -5 -33 -11z"/>
<path d="M3949 4131 l-29 -29 0 -142 0 -142 29 -29 c16 -16 39 -29 51 -29 12
0 35 13 51 29 l29 29 0 142 0 142 -29 29 c-16 16 -39 29 -51 29 -12 0 -35 -13
-51 -29z"/>
<path d="M1389 3891 c-28 -29 -29 -32 -29 -131 0 -99 1 -102 29 -131 16 -16
39 -29 51 -29 12 0 35 13 51 29 28 29 29 32 29 131 0 99 -1 102 -29 131 -16
16 -39 29 -51 29 -12 0 -35 -13 -51 -29z"/>
<path d="M3869 3251 c-28 -29 -29 -32 -29 -131 0 -99 1 -102 29 -131 16 -16
39 -29 51 -29 12 0 35 13 51 29 28 29 29 32 29 131 0 99 -1 102 -29 131 -16
16 -39 29 -51 29 -12 0 -35 -13 -51 -29z"/>
</g>
</svg>
